{"title":"Murder 3 2013 MC DVDScrRip x264 Hindi [TMB]","uid":8182410,"size":617702784,"categoryP":"video","categoryS":"movies","magnet":"?xt=urn:btih:5facf9bfb028ede653334eab0b575d3d9eaccb63&amp;dn=Murder+3+2013+MC+DVDScrRip+x264+Hindi+%5BTMB%5D&amp;tr=udp%3A%2F%2Ftracker.openbittorrent.com%3A80&amp;tr=udp%3A%2F%2Fopen.demonii.com%3A1337&amp;tr=udp%3A%2F%2Ftracker.coppersurfer.tk%3A6969&amp;tr=udp%3A%2F%2Fexodus.desync.com%3A6969","seeders":1,"leechers":0,"uploader":"SJonam","files":1,"time":1361651883,"description":" &lt;a href=&quot;http://i1306.photobucket.com/albums/s570/zyx55e/44_zpsc46e809d.gif&quot; rel=&quot;nofollow&quot; target=&quot;_NEW&quot;&gt;http://i1306.photobucket.com/albums/s570/zyx55e/44_zpsc46e809d.gif&lt;/a&gt; &lt;a href=&quot;\nhttp://desibbrg.org/images/73720201635699351120.jpg&quot; rel=&quot;nofollow&quot; target=&quot;_NEW&quot;&gt;\nhttp://desibbrg.org/images/73720201635699351120.jpg&lt;/a&gt; &lt;a href=&quot;\nhttp://desibbrg.org/images/69151597617804903609.png&quot; rel=&quot;nofollow&quot; target=&quot;_NEW&quot;&gt;\nhttp://desibbrg.org/images/69151597617804903609.png&lt;/a&gt; &lt;a href=&quot;\nhttp://desibbrg.org/images/11357590412783580913.png&quot; rel=&quot;nofollow&quot; target=&quot;_NEW&quot;&gt;\nhttp://desibbrg.org/images/11357590412783580913.png&lt;/a&gt; &lt;a href=&quot;\nhttp://desibbrg.org/images/54596807742205491942.png&quot; rel=&quot;nofollow&quot; target=&quot;_NEW&quot;&gt;\nhttp://desibbrg.org/images/54596807742205491942.png&lt;/a&gt; &lt;a href=&quot;\nhttp://desibbrg.org/images/93679538326440634677.png&quot; rel=&quot;nofollow&quot; target=&quot;_NEW&quot;&gt;\nhttp://desibbrg.org/images/93679538326440634677.png&lt;/a&gt; &lt;a href=&quot;\nhttp://desibbrg.org/images/60333138818923501452.png&quot; rel=&quot;nofollow&quot; target=&quot;_NEW&quot;&gt;\nhttp://desibbrg.org/images/60333138818923501452.png&lt;/a&gt;\n &lt;a href=&quot;\nhttp://i1306.photobucket.com/albums/s570/zyx55e/tmb5_zps8d7506e8.gif&quot; rel=&quot;nofollow&quot; target=&quot;_NEW&quot;&gt;\nhttp://i1306.photobucket.com/albums/s570/zyx55e/tmb5_zps8d7506e8.gif&lt;/a&gt;\n\nRandeep Hooda.... Vikram\nAditi Rao Hydari.... Roshni\nTonishaa Pawar.... Naomi\nSara Loren/Mona Laizza.... Nisha\nRajesh Shringapure.... Kabir\nKarla Singh.... Foreigner\nBugs Bhargava.... D.K Bose\nShekhar Shukla.... Senior Investigating Officer\nShraddha Jaiswal.... Sheena\n &lt;a href=&quot;\nhttp://i1306.photobucket.com/albums/s570/zyx55e/oie_11162011MOJeDGQI_zpsc25b2b81.gif&quot; rel=&quot;nofollow&quot; target=&quot;_NEW&quot;&gt;\nhttp://i1306.photobucket.com/albums/s570/zyx55e/oie_11162011MOJeDGQI_zpsc25b2b81.gif&lt;/a&gt;\n\nGeneral\nComplete name                  : Murder 3 Mc DVDScrRip x264 [TMB].m4v\nFormat                         : MPEG-4\nFormat profile                 : Base Media / Version 2\nCodec ID                       : mp42\nFile size                      : 589 MiB\nDuration                       : 1h 56mn\nOverall bit rate mode          : Variable\nOverall bit rate               : 707 Kbps\n\nVideo\nID                             : 1\nFormat                         : AVC\nFormat/Info                    : Advanced Video Codec\nFormat profile                 : &lt;a class=&quot;__cf_email__&quot; href=&quot;/cdn-cgi/l/email-protection&quot; data-cfemail=&quot;236e424a4d636f100d13&quot;&gt;[email&amp;#160;protected]&lt;/a&gt;&lt;script cf-hash='f9e31' type=&quot;text/javascript&quot;&gt;\n/* &lt;![CDATA[ */!function(){try{var t=&quot;currentScript&quot;in document?document.currentScript:function(){for(var t=document.getElementsByTagName(&quot;script&quot;),e=t.length;e--;)if(t[e].getAttribute(&quot;cf-hash&quot;))return t[e]}();if(t&amp;&amp;t.previousSibling){var e,r,n,i,c=t.previousSibling,a=c.getAttribute(&quot;data-cfemail&quot;);if(a){for(e=&quot;&quot;,r=parseInt(a.substr(0,2),16),n=2;a.length-n;n+=2)i=parseInt(a.substr(n,2),16)^r,e+=String.fromCharCode(i);e=document.createTextNode(e),c.parentNode.replaceChild(e,c)}}}catch(u){}}();/* ]]&gt; */&lt;/script&gt;\nFormat settings, CABAC         : Yes\nFormat settings, ReFrames      : 4 frames\nCodec ID                       : avc1\nCodec ID/Info                  : Advanced Video Coding\nDuration                       : 1h 56mn\nBit rate mode                  : Variable\nBit rate                       : 541 Kbps\nWidth                          : 720 pixels\nHeight                         : 312 pixels\nDisplay aspect ratio           : 2.052\nOriginal display aspect ratio  : 2.051\nFrame rate mode                : Variable\nFrame rate                     : 23.976 fps\nMinimum frame rate             : 19.969 fps\nMaximum frame rate             : 29.970 fps\nColor space                    : YUV\nChroma subsampling             : 4:2:0\nBit depth                      : 8 bits\nScan type                      : Progressive\nBits/(Pixel*Frame)             : 0.100\nStream size                    : 451 MiB (77%)\nWriting library                : x264 core 120\nColor primaries                : BT.601 NTSC\nTransfer characteristics       : BT.709\nMatrix coefficients            : BT.601\n\nAudio\nID                             : 2\nFormat                         : AAC\nFormat/Info                    : Advanced Audio Codec\nFormat profile                 : LC\nCodec ID                       : 40\nDuration                       : 1h 56mn\nBit rate mode                  : Variable\nBit rate                       : 160 Kbps\nMaximum bit rate               : 347 Kbps\nChannel(s)                     : 2 channels\nChannel positions              : Front: L R\nSampling rate                  : 48.0 KHz\nCompression mode               : Lossy\nDelay relative to video        : 83ms\nStream size                    : 133 MiB (23%)\nLanguage                       : English\n\nRipper : Manojvb\n\nSeeding 24x7... Extreme Seeding...\n\nEnjoy!\n &lt;a href=&quot;\nhttp://i1306.photobucket.com/albums/s570/zyx55e/oie_1117625zVIGKvnK_zpsc8b6e055.gif&quot; rel=&quot;nofollow&quot; target=&quot;_NEW&quot;&gt;\nhttp://i1306.photobucket.com/albums/s570/zyx55e/oie_1117625zVIGKvnK_zpsc8b6e055.gif&lt;/a&gt;","torrent":{"xt":"urn:btih:5facf9bfb028ede653334eab0b575d3d9eaccb63","amp;dn":"Murder+3+2013+MC+DVDScrRip+x264+Hindi+%5BTMB%5D","amp;tr":["udp%3A%2F%2Ftracker.openbittorrent.com%3A80","udp%3A%2F%2Fopen.demonii.com%3A1337","udp%3A%2F%2Ftracker.coppersurfer.tk%3A6969","udp%3A%2F%2Fexodus.desync.com%3A6969"],"infoHash":"5facf9bfb028ede653334eab0b575d3d9eaccb63","infoHashBuffer":{"type":"Buffer","data":[95,172,249,191,176,40,237,230,83,51,78,171,11,87,93,61,158,172,203,99]},"announce":[],"urlList":[]}}